<svg xmlns="http://www.w3.org/2000/svg" viewBox="0 0 24 24" fill="currentColor"><path d="M12.186 24h-.007c-3.581-.024-6.334-1.205-8.184-3.509C2.35 18.44 1.5 15.586 1.472 12.01v-.017c.03-3.579.879-6.43 2.525-8.482C5.845 1.205 8.6.024 12.18 0h.014c2.746.02 5.043.725 6.826 2.098 1.677 1.29 2.858 3.13 3.509 5.467l-2.04.569c-1.104-3.96-3.898-5.984-8.304-6.015-2.91.022-5.11.936-6.54 2.717C4.307 6.504 3.616 8.914 3.59 12c.025 3.086.718 5.496 2.057 7.164 1.432 1.781 3.632 2.695 6.54 2.717 2.227-.015 4.07-.59 5.47-1.702 1.527-1.213 2.277-2.88 2.228-4.958-.035-1.422-.542-2.542-1.505-3.328-.9-.734-2.105-1.128-3.476-1.167-.997.01-2.14.227-2.907.735-.652.43-1.074 1.013-1.172 1.677 1.397-.346 2.78-.424 3.896-.166 1.263.292 2.218.984 2.676 1.946.37.778.395 1.655.07 2.465-.383.952-1.166 1.678-2.204 2.044-.817.29-1.754.38-2.657.257-1.267-.172-2.34-.726-3.013-1.56-.626-.775-.956-1.772-.98-2.962-.005-.07-.003-.14-.003-.21.019-1.591.613-2.937 1.716-3.894 1.224-1.062 2.93-1.626 4.925-1.632h.06c1.725.02 3.24.49 4.452 1.384 1.158.854 1.953 2.07 2.354 3.586l.008.03c.082.344.137.698.166 1.06.148 1.85-.36 3.508-1.468 4.795-1.247 1.45-3.194 2.372-5.628 2.661-.358.042-.72.065-1.087.073zm-1.19-8.126c.018.862.237 1.517.65 1.948.437.456 1.107.722 1.99.79.624.049 1.283-.01 1.85-.167.625-.172 1.1-.522 1.333-1.105.166-.413.148-.85-.05-1.267-.249-.523-.778-.882-1.49-1.046-.756-.175-1.72-.13-2.71.126l-.554.143-.006.003c-.648.178-1.03.509-1.013 1.575z"/></svg>
